<svg width="130" height="129" viewBox="0 0 130 129" fill="none" xmlns="http://www.w3.org/2000/svg">
<g id="logo.svg" clip-path="url(#clip0_11_180)">
<g id="Logo">
<g id="Grupo 2808">
<path id="Caminho 4418" d="M1.26318 102.873H7.97328C9.16198 102.781 10.34 103.155 11.258 103.915C11.6369 104.308 11.9296 104.776 12.1175 105.288C12.3053 105.8 12.3842 106.346 12.349 106.891C12.381 107.461 12.2913 108.032 12.086 108.566C11.8806 109.099 11.5643 109.583 11.1579 109.984C10.1332 110.806 8.83337 111.205 7.52425 111.1H5.3107V115.933H1.26318V102.873ZM5.3107 108.452H6.30252C6.88309 108.507 7.46513 108.364 7.95344 108.045C8.10587 107.919 8.22767 107.76 8.30967 107.58C8.39166 107.399 8.43172 107.203 8.4268 107.005C8.43089 106.813 8.39638 106.621 8.3253 106.442C8.25422 106.263 8.14802 106.1 8.01295 105.963C7.57178 105.625 7.01618 105.471 6.46391 105.536H5.30799V108.452H5.3107ZM14.4489 102.873H25.2426V105.663H18.4974V107.741H24.7458V110.404H18.4928V112.974H25.4356V115.928H14.4489V102.873ZM27.6536 102.873H31.418L36.3131 110.086V102.873H40.1253V115.929H36.3131L31.4442 108.76V115.929H27.6518V102.873H27.6536ZM41.8925 102.873H54.164V106.101H50.0425V115.929H46.0131V106.101H41.8916L41.8925 102.873ZM64.0037 113.777H59.4332L58.7768 115.929H54.6599L59.5739 102.873H63.992L68.8843 115.929H64.661L64.0064 113.777H64.0037ZM63.1498 110.951L61.7243 106.262L60.2934 110.951H63.1498ZM61.6432 99.426H64.7611L61.8794 102.085H60.1473L61.6432 99.4224V99.426ZM76.7188 111.205V108.487H82.9555V114.038C81.9838 114.738 80.9188 115.298 79.7916 115.703C78.7331 116.017 77.6324 116.165 76.5285 116.143C75.2201 116.196 73.919 115.923 72.7416 115.35C71.76 114.818 70.9672 113.994 70.4722 112.993C69.9181 111.877 69.6419 110.643 69.667 109.397C69.6359 108.103 69.9396 106.823 70.5488 105.681C71.1344 104.63 72.0373 103.791 73.1284 103.283C74.258 102.815 75.4764 102.6 76.6981 102.652C77.7886 102.607 78.8793 102.74 79.9269 103.046C80.6167 103.289 81.231 103.708 81.7085 104.262C82.2112 104.872 82.574 105.584 82.7716 106.35L78.8882 107.049C78.7539 106.589 78.4678 106.189 78.0767 105.913C77.6407 105.633 77.129 105.495 76.6115 105.517C76.2128 105.501 75.8157 105.576 75.45 105.735C75.0842 105.895 74.7594 106.135 74.4998 106.438C73.9041 107.287 73.6252 108.319 73.7118 109.352C73.613 110.422 73.8953 111.493 74.5088 112.375C74.788 112.681 75.1319 112.922 75.5155 113.079C75.8991 113.236 76.3129 113.306 76.7269 113.284C77.1635 113.286 77.5978 113.22 78.0145 113.09C78.5049 112.92 78.9755 112.698 79.4183 112.427V111.206L76.7188 111.205ZM84.8337 109.409C84.7788 108.503 84.9084 107.595 85.2145 106.74C85.5205 105.885 85.9968 105.101 86.6144 104.436C87.2779 103.819 88.0593 103.343 88.9116 103.037C89.7639 102.731 90.6694 102.601 91.5735 102.654C92.4854 102.595 93.3999 102.719 94.2629 103.02C95.126 103.32 95.9201 103.79 96.5984 104.402C97.2094 105.057 97.6808 105.829 97.9838 106.672C98.2868 107.514 98.4152 108.41 98.3611 109.304C98.4115 110.598 98.1476 111.885 97.592 113.054C97.0902 114.017 96.3155 114.81 95.365 115.334C94.2441 115.911 92.9939 116.19 91.734 116.145C90.4781 116.189 89.2285 115.949 88.0778 115.444C87.0916 114.952 86.2751 114.177 85.7335 113.217C85.096 112.052 84.7845 110.736 84.8319 109.409H84.8337ZM88.8631 109.418C88.7746 110.421 89.0344 111.423 89.5989 112.257C89.8463 112.543 90.1554 112.769 90.5029 112.918C90.8504 113.068 91.2272 113.137 91.6051 113.119C91.983 113.141 92.3608 113.076 92.71 112.93C93.0591 112.784 93.3704 112.56 93.6202 112.275C94.1889 111.371 94.4401 110.302 94.3344 109.239C94.4149 108.282 94.1507 107.328 93.5896 106.549C93.3372 106.266 93.0248 106.042 92.675 105.895C92.3253 105.748 91.9471 105.681 91.5681 105.699C91.197 105.685 90.8277 105.756 90.4878 105.905C90.1479 106.055 89.8462 106.279 89.6052 106.562C89.034 107.399 88.7717 108.409 88.8631 109.418ZM100.569 102.872H104.334L109.229 110.085V102.872H113.041V115.928H109.231L104.362 108.757V115.926H100.569V102.872ZM115.209 109.409C115.154 108.503 115.284 107.595 115.59 106.74C115.896 105.885 116.373 105.101 116.991 104.436C117.654 103.819 118.436 103.343 119.288 103.037C120.14 102.731 121.046 102.6 121.95 102.654C122.862 102.595 123.776 102.72 124.638 103.02C125.501 103.32 126.295 103.79 126.973 104.401C127.584 105.056 128.055 105.828 128.358 106.671C128.661 107.513 128.789 108.409 128.735 109.303C128.785 110.597 128.522 111.884 127.966 113.054C127.464 114.016 126.689 114.809 125.739 115.333C124.618 115.91 123.368 116.189 122.108 116.144C120.852 116.188 119.602 115.948 118.452 115.443C117.466 114.951 116.65 114.175 116.107 113.216C115.47 112.051 115.158 110.735 115.206 109.408L115.209 109.409ZM119.239 109.418C119.15 110.421 119.41 111.423 119.975 112.257C120.222 112.543 120.531 112.769 120.879 112.918C121.226 113.068 121.603 113.137 121.981 113.119C122.359 113.141 122.736 113.076 123.085 112.93C123.434 112.783 123.745 112.56 123.995 112.275C124.564 111.371 124.815 110.302 124.709 109.239C124.79 108.282 124.526 107.328 123.964 106.549C123.712 106.266 123.4 106.043 123.05 105.896C122.7 105.75 122.323 105.683 121.944 105.701C121.573 105.687 121.203 105.758 120.864 105.907C120.524 106.057 120.222 106.281 119.981 106.564C119.41 107.401 119.148 108.409 119.239 109.418Z" fill="#3C3C3B"/>
<path id="Caminho 4419" d="M7.04006 128.013H5.50726L4.90134 126.416H2.08729L1.50482 128.013H0.00177002L2.72566 120.996H4.22781L7.03826 128.013H7.04006ZM4.44331 125.229L3.46862 122.633L2.52008 125.229H4.44331ZM12.2877 125.425L13.66 125.846C13.5094 126.521 13.1393 127.126 12.6078 127.568C12.0668 127.958 11.4111 128.155 10.7449 128.129C10.3156 128.143 9.8884 128.064 9.49176 127.899C9.09511 127.735 8.7382 127.487 8.44483 127.173C7.81357 126.453 7.48984 125.515 7.54318 124.559C7.48097 123.569 7.80407 122.593 8.44483 121.836C8.74916 121.514 9.11912 121.26 9.52975 121.093C9.94038 120.926 10.3821 120.848 10.8252 120.866C11.5955 120.833 12.3475 121.107 12.9161 121.628C13.27 121.986 13.5195 122.434 13.6374 122.924L12.2363 123.256C12.1682 122.917 11.9846 122.613 11.7169 122.395C11.4434 122.182 11.1043 122.071 10.7576 122.08C10.5177 122.072 10.2791 122.118 10.0596 122.215C9.8401 122.312 9.64535 122.458 9.48985 122.641C9.11784 123.168 8.94499 123.81 9.00206 124.453C8.94146 125.12 9.11036 125.788 9.48083 126.347C9.63169 126.53 9.82239 126.676 10.0384 126.774C10.2543 126.872 10.4899 126.919 10.7269 126.912C11.0855 126.919 11.4335 126.79 11.7007 126.551C12.0082 126.244 12.2127 125.85 12.2859 125.421L12.2877 125.425ZM21.1951 128.013H19.6623L19.0564 126.416H16.2423L15.6598 128.013H14.1568L16.8816 120.996H18.3819L21.1924 128.013H21.1951ZM18.5983 125.229L17.6236 122.633L16.6769 125.229H18.5983ZM21.9516 120.996H24.7566C25.1722 120.987 25.5879 121.01 26 121.065C26.2621 121.108 26.512 121.206 26.733 121.353C26.9546 121.505 27.1395 121.705 27.274 121.937C27.4192 122.186 27.494 122.47 27.4904 122.758C27.4921 123.078 27.4 123.391 27.2253 123.66C27.0505 123.931 26.7996 124.145 26.504 124.275C26.8924 124.376 27.2377 124.599 27.4877 124.913C27.7174 125.218 27.838 125.591 27.8303 125.973C27.8295 126.297 27.7536 126.617 27.6085 126.906C27.4695 127.194 27.2599 127.443 26.999 127.628C26.7154 127.817 26.3884 127.931 26.0487 127.96C25.813 127.985 25.2438 128.001 24.341 128.008H21.9525V120.992L21.9516 120.996ZM23.3717 122.162V123.779H24.2995C24.8495 123.779 25.193 123.771 25.3265 123.754C25.54 123.739 25.7419 123.651 25.8981 123.505C25.9681 123.432 26.0226 123.347 26.0582 123.253C26.0939 123.159 26.11 123.059 26.1055 122.958C26.1137 122.766 26.0493 122.578 25.9252 122.432C25.785 122.286 25.5951 122.198 25.3932 122.186C25.2516 122.171 24.8522 122.162 24.1841 122.162H23.3717ZM23.3717 124.945V126.826H24.6854C25.0097 126.836 25.3343 126.822 25.6565 126.784C25.8554 126.752 26.0374 126.652 26.1722 126.502C26.3103 126.335 26.381 126.122 26.3706 125.905C26.3776 125.713 26.3236 125.523 26.2164 125.364C26.1081 125.211 25.953 125.098 25.7746 125.042C25.3615 124.954 24.9386 124.92 24.5168 124.941L23.3717 124.945ZM35.3483 128.011H33.8155L33.2087 126.414H30.3946L29.8113 128.011H28.3091L31.033 120.994H32.5334L35.3447 128.011H35.3483ZM32.7507 125.228L31.7724 122.633L30.8256 125.229L32.7507 125.228ZM36.0868 128.011V120.994H38.2138L39.4761 125.779L40.7185 120.994H42.8519V128.011H41.54L41.5345 122.487L40.1514 128.011H38.7782L37.4014 122.487L37.396 128.011H36.0868ZM44.2693 128.011V120.994H49.4619V122.181H45.6894V123.739H49.1968V124.924H45.6894V126.825H49.5989V128.012L44.2693 128.011ZM50.8044 128.011V120.994H52.1803L55.0656 125.696V120.994H56.3793V128.011H54.9601L52.1172 123.399V128.011H50.8044ZM59.4603 128.011V122.181H57.3865V120.994H62.9524V122.181H60.884V128.011H59.4603ZM63.3978 124.545C63.3796 123.928 63.4888 123.314 63.7188 122.742C63.878 122.384 64.0996 122.058 64.3734 121.778C64.6296 121.508 64.9379 121.294 65.2795 121.147C65.7607 120.954 66.2759 120.859 66.7943 120.869C67.2525 120.848 67.7099 120.923 68.1375 121.089C68.565 121.255 68.9533 121.508 69.2775 121.833C69.6017 122.196 69.851 122.62 70.0108 123.081C70.1706 123.541 70.238 124.028 70.2089 124.514C70.2659 125.49 69.9331 126.448 69.2838 127.178C68.9621 127.502 68.5761 127.755 68.1505 127.921C67.725 128.087 67.2694 128.161 66.8132 128.14C66.3544 128.162 65.896 128.089 65.4672 127.924C65.0384 127.759 64.6487 127.507 64.3229 127.183C64.0026 126.827 63.7561 126.41 63.5975 125.958C63.4389 125.505 63.3713 125.026 63.3987 124.548L63.3978 124.545ZM64.8576 124.496C64.8114 125.147 65.0076 125.791 65.4085 126.306C65.5825 126.505 65.7981 126.663 66.0401 126.77C66.282 126.876 66.5445 126.928 66.8087 126.922C67.0719 126.929 67.3335 126.878 67.5746 126.772C67.8158 126.667 68.0306 126.509 68.2036 126.31C68.6025 125.786 68.795 125.133 68.7446 124.476C68.7963 123.83 68.6071 123.188 68.2135 122.673C68.0375 122.476 67.82 122.32 67.5766 122.217C67.3333 122.114 67.0701 122.066 66.806 122.077C66.5406 122.067 66.2762 122.116 66.0318 122.22C65.7874 122.324 65.569 122.481 65.3922 122.679C64.9955 123.197 64.803 123.842 64.8513 124.493L64.8576 124.496ZM70.941 125.736L72.3232 125.6C72.3677 125.987 72.5456 126.347 72.8264 126.617C73.1165 126.846 73.4804 126.962 73.8497 126.942C74.2159 126.969 74.5799 126.867 74.8785 126.653C74.9842 126.574 75.0704 126.473 75.1304 126.355C75.1905 126.238 75.2227 126.109 75.2248 125.977C75.2279 125.823 75.1765 125.672 75.0796 125.552C74.9387 125.409 74.7632 125.305 74.5702 125.25C74.4061 125.19 74.0301 125.088 73.4422 124.944C72.8648 124.837 72.3198 124.598 71.8499 124.246C71.6452 124.071 71.4815 123.854 71.3702 123.609C71.259 123.364 71.2029 123.098 71.2061 122.829C71.2067 122.472 71.3117 122.122 71.5081 121.824C71.7213 121.504 72.0261 121.255 72.3827 121.112C72.8205 120.938 73.2888 120.855 73.7596 120.867C74.4699 120.814 75.1753 121.022 75.7432 121.451C75.9638 121.647 76.1402 121.888 76.2608 122.157C76.3814 122.426 76.4435 122.718 76.4429 123.013L75.021 123.062C74.9934 122.763 74.8555 122.485 74.6342 122.282C74.3722 122.105 74.0586 122.021 73.7433 122.044C73.4049 122.024 73.0689 122.113 72.7849 122.298C72.7143 122.347 72.6569 122.413 72.6179 122.489C72.5789 122.566 72.5594 122.65 72.5613 122.736C72.5616 122.819 72.5808 122.9 72.6174 122.974C72.6539 123.048 72.7069 123.112 72.7723 123.163C73.1714 123.401 73.612 123.561 74.0706 123.635C74.5967 123.742 75.1082 123.912 75.5944 124.139C75.9132 124.302 76.1813 124.549 76.3699 124.853C76.5653 125.192 76.6618 125.579 76.6485 125.971C76.6489 126.372 76.5327 126.764 76.3139 127.1C76.088 127.454 75.7568 127.727 75.3672 127.882C74.88 128.068 74.3609 128.155 73.8398 128.139C73.1068 128.188 72.3809 127.969 71.7967 127.524C71.2938 127.06 70.9889 126.42 70.9455 125.737L70.941 125.736ZM82.1503 128.01V122.18H80.0765V120.993H85.6424V122.18H83.5741V128.01H82.1503ZM86.5576 128.01V120.993H91.752V122.18H87.9795V123.738H91.4869V124.923H87.9795V126.824H91.8891V128.011L86.5576 128.01ZM88.488 120.356L89.1553 118.925H90.6502L89.3266 120.356H88.488ZM97.5821 125.422L98.9544 125.843C98.8047 126.518 98.4348 127.124 97.9031 127.566C97.3618 127.955 96.7058 128.153 96.0394 128.126C95.6101 128.14 95.1828 128.062 94.7862 127.897C94.3895 127.732 94.0326 127.484 93.7393 127.171C93.108 126.451 92.7843 125.512 92.8376 124.556C92.7754 123.566 93.0985 122.591 93.7393 121.834C94.0434 121.511 94.413 121.258 94.8233 121.091C95.2336 120.923 95.675 120.846 96.1178 120.864C96.8887 120.831 97.6412 121.105 98.2105 121.625C98.5645 121.984 98.8139 122.432 98.9319 122.921L97.5307 123.253C97.4616 122.915 97.2782 122.611 97.0114 122.393C96.7372 122.179 96.3975 122.068 96.0502 122.077C95.8103 122.069 95.5718 122.116 95.3523 122.213C95.1328 122.31 94.9381 122.455 94.7825 122.638C94.4117 123.166 94.2395 123.808 94.2965 124.45C94.2359 125.118 94.4048 125.786 94.7753 126.344C94.926 126.527 95.1167 126.673 95.3327 126.771C95.5487 126.869 95.7843 126.916 96.0213 126.909C96.3799 126.917 96.7279 126.788 96.9951 126.548C97.3028 126.242 97.5071 125.847 97.5794 125.419L97.5821 125.422ZM100.171 128.01V120.993H101.547L104.432 125.695V120.993H105.746V128.01H104.326L101.484 123.398V128.01H100.171ZM107.199 128.01V120.993H108.619V128.01H107.199ZM114.454 125.425L115.826 125.846C115.675 126.521 115.305 127.126 114.774 127.568C114.233 127.958 113.577 128.155 112.91 128.129C112.481 128.142 112.054 128.064 111.657 127.899C111.26 127.734 110.903 127.487 110.61 127.173C109.979 126.453 109.656 125.514 109.708 124.559C109.647 123.569 109.97 122.594 110.61 121.836C110.914 121.514 111.284 121.261 111.695 121.093C112.106 120.926 112.547 120.848 112.99 120.866C113.761 120.834 114.514 121.107 115.083 121.628C115.437 121.986 115.687 122.434 115.804 122.924L114.403 123.256C114.335 122.917 114.152 122.613 113.884 122.395C113.61 122.182 113.271 122.071 112.925 122.08C112.684 122.073 112.446 122.121 112.227 122.219C112.008 122.318 111.813 122.464 111.659 122.648C111.288 123.176 111.116 123.818 111.173 124.46C111.111 125.128 111.28 125.796 111.651 126.354C111.802 126.537 111.993 126.683 112.209 126.781C112.425 126.879 112.66 126.926 112.898 126.919C113.256 126.926 113.603 126.798 113.87 126.558C114.178 126.251 114.382 125.855 114.454 125.425ZM116.749 124.547C116.73 123.93 116.839 123.316 117.07 122.744C117.229 122.386 117.45 122.059 117.723 121.78C117.979 121.51 118.288 121.295 118.629 121.148C119.111 120.955 119.626 120.861 120.144 120.871C120.603 120.85 121.06 120.925 121.488 121.092C121.916 121.258 122.304 121.512 122.628 121.836C123.23 122.597 123.559 123.538 123.56 124.508C123.561 125.478 123.235 126.42 122.634 127.181C122.313 127.506 121.927 127.759 121.501 127.925C121.076 128.09 120.62 128.165 120.164 128.144C119.705 128.166 119.247 128.092 118.818 127.928C118.389 127.763 117.999 127.511 117.674 127.187C117.353 126.83 117.107 126.414 116.948 125.961C116.79 125.509 116.722 125.03 116.749 124.551L116.749 124.547ZM118.208 124.498C118.162 125.149 118.359 125.794 118.761 126.308C118.935 126.507 119.15 126.665 119.392 126.772C119.633 126.878 119.895 126.93 120.159 126.924C120.423 126.931 120.684 126.88 120.925 126.774C121.167 126.668 121.381 126.511 121.554 126.312C121.953 125.788 122.146 125.135 122.095 124.478C122.146 123.832 121.957 123.19 121.564 122.675C121.388 122.478 121.17 122.322 120.926 122.219C120.683 122.116 120.419 122.068 120.155 122.079C119.889 122.069 119.625 122.118 119.381 122.222C119.136 122.326 118.918 122.483 118.741 122.681C118.344 123.199 118.152 123.844 118.2 124.495L118.208 124.498ZM124.292 125.738L125.674 125.602C125.719 125.987 125.896 126.346 126.175 126.615C126.466 126.845 126.83 126.96 127.2 126.94C127.565 126.967 127.929 126.865 128.227 126.651C128.332 126.573 128.418 126.471 128.478 126.353C128.538 126.236 128.571 126.107 128.573 125.975C128.576 125.821 128.525 125.67 128.428 125.55C128.287 125.407 128.112 125.303 127.92 125.248C127.754 125.19 127.379 125.088 126.791 124.942C126.214 124.835 125.669 124.596 125.199 124.244C124.858 123.95 124.636 123.542 124.573 123.097C124.511 122.652 124.612 122.198 124.858 121.822C125.07 121.502 125.375 121.254 125.731 121.11C126.168 120.936 126.637 120.853 127.108 120.865C127.818 120.812 128.523 121.019 129.091 121.45C129.312 121.645 129.489 121.886 129.61 122.155C129.73 122.424 129.792 122.716 129.791 123.011L128.369 123.06C128.341 122.761 128.204 122.483 127.982 122.28C127.721 122.103 127.407 122.019 127.092 122.042C126.754 122.022 126.418 122.111 126.134 122.296C126.063 122.345 126.005 122.41 125.966 122.487C125.926 122.563 125.907 122.648 125.908 122.734C125.909 122.817 125.928 122.898 125.964 122.972C126.001 123.046 126.054 123.111 126.119 123.161C126.519 123.399 126.959 123.559 127.418 123.633C127.944 123.741 128.456 123.91 128.942 124.137C129.261 124.301 129.528 124.547 129.716 124.852C129.911 125.191 130.008 125.578 129.995 125.969C129.995 126.37 129.879 126.762 129.66 127.098C129.434 127.452 129.103 127.725 128.713 127.88C128.226 128.066 127.707 128.153 127.186 128.137C126.453 128.186 125.727 127.968 125.143 127.522C124.64 127.058 124.335 126.418 124.292 125.735V125.738Z" fill="#1D1D1B"/>
<path id="Caminho 4422" fill-rule="evenodd" clip-rule="evenodd" d="M65.0018 -7.62939e-05L97.1746 17.8301L129.348 35.6611L117.059 64.514L104.769 93.3623H25.2354L12.9459 64.514L0.656372 35.6611L32.8291 17.831L65.0018 -7.62939e-05Z" fill="#1D1D1B"/>
<path id="Caminho 4423" fill-rule="evenodd" clip-rule="evenodd" d="M65.0063 0.331879L96.95 18.0358L128.89 35.7397L116.688 64.3852L104.486 93.0289H25.514L13.3119 64.3852L1.10986 35.7397L33.0545 18.0358L65.0063 0.331879Z" fill="#9C9B9B"/>
<path id="Caminho 4425" fill-rule="evenodd" clip-rule="evenodd" d="M65.0009 4.00255L94.4155 20.3044L123.83 36.6063L112.595 62.9841L101.359 89.3592H28.6436L17.4081 62.9841L6.17267 36.6063L35.5872 20.3044L65.0009 4.00255Z" fill="#C6C6C5"/>
<path id="Caminho 4426" fill-rule="evenodd" clip-rule="evenodd" d="M65.0018 6.36563L92.5879 21.654L120.174 36.9424L109.636 61.6801L99.0987 86.4151H30.905L20.3683 61.6801L9.83069 36.9424L37.4212 21.654L65.0072 6.36563H65.0018Z" fill="#1D1D1B"/>
<path id="Caminho 4427" fill-rule="evenodd" clip-rule="evenodd" d="M65.0027 6.65599L92.3877 21.8335L119.774 37.011L109.314 61.5693L98.8525 86.1266H31.152L20.6929 61.5711L10.2337 37.0128L37.6196 21.8353L65.0054 6.65779L65.0027 6.65599Z" fill="white"/>
<path id="Caminho 4428" fill-rule="evenodd" clip-rule="evenodd" d="M65 9.3365L90.7386 23.6006L116.477 37.8648L106.649 60.947L96.8211 84.0293H33.1898L23.3618 60.947L13.5338 37.8648L39.2723 23.6006L65.0108 9.3365H65Z" fill="#1D1D1B"/>
<path id="Caminho 4429" fill-rule="evenodd" clip-rule="evenodd" d="M65 9.60176L90.551 23.7658L116.111 37.928L106.349 60.8453L96.5921 83.7599H33.4125L23.6485 60.8453L13.8863 37.928L39.4454 23.7658L65.0009 9.60266L65 9.60176Z" fill="#9C9B9B"/>
<path id="Caminho 4431" fill-rule="evenodd" clip-rule="evenodd" d="M65.0009 12.5392L88.534 25.5807L112.067 38.6221L103.079 59.7208L94.09 80.8194H35.9146L26.926 59.7208L17.9374 38.6221L41.4705 25.5807L65.0036 12.5392H65.0009Z" fill="#C6C6C5"/>
<path id="Caminho 4432" fill-rule="evenodd" clip-rule="evenodd" d="M65 14.4292L87.0688 26.6601L109.138 38.8928L100.708 58.6814L92.2777 78.4699H37.7224L29.2883 58.6814L20.8633 38.8928L42.9321 26.6619L65.0009 14.431L65 14.4292Z" fill="#1D1D1B"/>
<path id="Caminho 4433" fill-rule="evenodd" clip-rule="evenodd" d="M64.9964 14.6617L86.9066 26.8033L108.817 38.9458L100.448 58.5928L92.0794 78.238H37.9199L29.5516 58.5928L21.1825 38.9458L43.0926 26.8033L64.9964 14.6617Z" fill="white"/>
<path id="Caminho 4434" fill-rule="evenodd" clip-rule="evenodd" d="M65 17.2559L85.1204 28.4066L105.241 39.5573L97.5551 57.6003L89.8694 75.6414H40.1307L32.445 57.6003L24.7593 39.5573L44.8797 28.4066L65 17.2559Z" fill="#1D1D1B"/>
<path id="Caminho 4435" fill-rule="evenodd" clip-rule="evenodd" d="M65.0009 17.4633L84.9779 28.5346L104.955 39.606L97.3206 57.5218L89.6899 75.4349H40.3083L32.6776 57.5218L25.0469 39.6069L45.0248 28.5346L65.0009 17.4633Z" fill="#C6C6C5"/>
<path id="Caminho 4437" fill-rule="evenodd" clip-rule="evenodd" d="M65.0009 19.7588L83.3946 29.9537L101.788 40.1487L94.7617 56.6489L87.7351 73.1438H42.264L35.2374 56.6489L28.2108 40.1487L46.6045 29.9537L64.9982 19.7588H65.0009Z" fill="#9C9B9B"/>
<path id="Caminho 4438" fill-rule="evenodd" clip-rule="evenodd" d="M65 21.4179L82.2513 30.9754L99.5035 40.5329L92.9134 56.0116L86.3232 71.4803H43.6751L37.0849 56.0116L30.4948 40.541L47.747 30.9835L64.9982 21.426L65 21.4179Z" fill="#1D1D1B"/>
<path id="Caminho 4439" fill-rule="evenodd" clip-rule="evenodd" d="M65 21.5973L82.1259 31.089L99.2528 40.5825L92.7113 55.9412L86.1699 71.2981H43.831L37.2895 55.9412L30.748 40.5825L47.874 31.0908L65 21.5973Z" fill="white"/>
<path id="Caminho 4440" fill-rule="evenodd" clip-rule="evenodd" d="M65 24.1435L80.3713 32.6623L95.7418 41.1848L89.8702 54.9692L83.9987 68.7518H45.9968L40.1252 54.9692L34.2582 41.1848L49.6286 32.6659L65 24.1435Z" fill="#1D1D1B"/>
<path id="Caminho 4441" fill-rule="evenodd" clip-rule="evenodd" d="M65 24.3049L80.2614 32.7633L95.5227 41.2217L89.6926 54.9078L83.8626 68.5922H46.1365L40.3074 54.9078L34.4773 41.2217L49.7396 32.7633L65 24.3049Z" fill="#C6C6C5"/>
<path id="Caminho 4443" fill-rule="evenodd" clip-rule="evenodd" d="M65 26.0595L79.0532 33.848L93.1108 41.6365L87.7433 54.2389L82.3758 66.8394H47.6351L42.2667 54.2389L36.8992 41.6365L50.9523 33.848L65.0054 26.0595H65Z" fill="#9C9B9B"/>
<path id="Caminho 4444" fill-rule="evenodd" clip-rule="evenodd" d="M65 27.3246L78.1794 34.628L91.3589 41.9314L86.325 53.7502L81.291 65.5673H48.7099L43.6759 53.7502L38.6411 41.9314L51.8205 34.628L65 27.3246Z" fill="#1D1D1B"/>
<path id="Caminho 4445" fill-rule="evenodd" clip-rule="evenodd" d="M65.0027 27.4653L78.0866 34.7164L91.1668 41.972L86.169 53.7051L81.1711 65.4329H48.8271L43.8292 53.7015L38.8323 41.972L51.9161 34.7209L65.0027 27.4653Z" fill="white"/>
<path id="Caminho 4446" fill-rule="evenodd" clip-rule="evenodd" d="M65 29.6851L76.5538 36.0868L88.1076 42.4885L83.6949 52.853L79.2813 63.213H50.7188L46.3052 52.853L41.8916 42.4912L53.4454 36.0895L64.9991 29.6878L65 29.6851Z" fill="#1D1D1B"/>
<path id="Caminho 4447" fill-rule="evenodd" clip-rule="evenodd" d="M65.0009 29.8042L76.4726 36.1617L87.9434 42.5193L83.5614 52.8071L79.1794 63.0931H50.8206L46.4386 52.8071L42.0566 42.5193L53.5283 36.1617L65.0009 29.8042Z" fill="#C6C6C5"/>
<path id="Caminho 4449" fill-rule="evenodd" clip-rule="evenodd" d="M65.0009 31.1223L75.5647 36.9767L86.1293 42.8321L82.0944 52.3048L78.0595 61.7767H51.9441L47.9083 52.3048L43.8734 42.8321L54.4372 36.9776L65.0009 31.1223Z" fill="#9C9B9B"/>
<path id="Caminho 4450" fill-rule="evenodd" clip-rule="evenodd" d="M65 32.0753L74.9073 37.5663L84.8138 43.0574L81.0268 51.9413L77.2399 60.8244H52.7547L48.9677 51.9413L45.1808 43.0574L55.0872 37.5663L64.9937 32.0753H65Z" fill="#1D1D1B"/>
<path id="Caminho 4451" fill-rule="evenodd" clip-rule="evenodd" d="M65.0046 32.18L74.8326 37.6305L84.6678 43.081L80.9106 51.9009L77.1543 60.72H52.844L49.0877 51.9009L45.3314 43.081L55.1657 37.6305L65.0046 32.18Z" fill="white"/>
<path id="Caminho 4452" d="M59.4197 37.4041H68.851V37.4096C69.8831 37.3938 70.9116 37.5367 71.9004 37.8333C72.0807 37.8892 72.2259 37.9406 72.3404 37.9848C73.0632 38.2609 73.7244 38.677 74.2861 39.2092C74.4666 39.3806 74.6359 39.5634 74.7929 39.7566C74.9485 39.9508 75.0912 40.155 75.2202 40.3679V40.3733C75.8964 41.5477 76.233 42.8868 76.1922 44.2414C76.2055 45.2321 76.0355 46.2167 75.6909 47.1456H75.6963C75.361 48.029 74.8274 48.8237 74.1365 49.4682L74.131 49.4737H74.1256C73.927 49.6561 73.7161 49.8248 73.4945 49.9786C73.2676 50.1369 73.0309 50.2805 72.7858 50.4087C71.3602 51.0874 69.7925 51.4143 68.2144 51.3617H66.3209V58.171H58.2115V37.4041H59.4197ZM68.8411 39.8206H60.6234V55.7509H63.9036V48.9417H68.2144C69.407 48.9942 70.5952 48.7643 71.6822 48.2709C71.8325 48.1943 71.9774 48.1075 72.1159 48.0112C72.2467 47.9191 72.3708 47.8179 72.4873 47.7082V47.7028H72.4927C72.9098 47.3107 73.232 46.8288 73.435 46.2935C73.6697 45.6373 73.7822 44.9436 73.7668 44.2468C73.8056 43.3358 73.5945 42.4316 73.1564 41.632C73.0817 41.5082 72.9988 41.3895 72.9084 41.2767C72.8242 41.1709 72.7338 41.0701 72.6379 40.9747L72.6154 40.9557C72.2811 40.6445 71.889 40.4018 71.4613 40.2416C71.3386 40.1948 71.2422 40.1587 71.1727 40.1371C70.4196 39.9132 69.6365 39.8064 68.851 39.8206H68.8411ZM66.3164 45.2233H66.4968C66.8683 45.2319 67.2395 45.1974 67.6031 45.1205C67.751 45.0926 67.8914 45.0339 68.0151 44.9483L68.0224 44.9429C68.0448 44.9236 68.0662 44.9032 68.0864 44.8815V44.8788C68.1045 44.8583 68.1214 44.8366 68.1369 44.8139H68.1423C68.2201 44.6944 68.2583 44.5533 68.2514 44.4109V44.4046H68.2568C68.2573 44.284 68.2352 44.1645 68.1919 44.052L68.1711 44.0078C68.1306 43.9252 68.0771 43.8497 68.0124 43.7842L67.9971 43.7698C67.9784 43.7567 67.9585 43.7456 67.9376 43.7364C67.5492 43.5947 67.1357 43.5348 66.7231 43.5606H66.3128V45.2341L66.3164 45.2233ZM66.4968 47.6424H63.9045V41.1334H66.724C67.5127 41.1025 68.2979 41.2537 69.0187 41.5752H69.0241C69.1564 41.643 69.2836 41.7205 69.4046 41.8069C69.5288 41.8953 69.6447 41.9949 69.7508 42.1045V42.1099C69.9975 42.3639 70.201 42.6566 70.3531 42.9764C70.3811 43.035 70.4081 43.0972 70.4325 43.1567H70.4379C70.5903 43.5524 70.6671 43.9733 70.6642 44.3974V44.4037C70.6778 45.0543 70.4815 45.692 70.1043 46.2223C70.0308 46.3248 69.951 46.4227 69.8653 46.5153C69.7804 46.6083 69.6901 46.6962 69.5948 46.7786L69.5858 46.7849C69.178 47.1196 68.6971 47.3535 68.1819 47.4675C67.6304 47.5948 67.0655 47.6553 66.4995 47.6478L66.4968 47.6424Z" fill="#9C9B9B"/>
</g>
</g>
</g>
<defs>
<clipPath id="clip0_11_180">
<rect width="129.991" height="128.14" fill="white" transform="translate(0.00445557)"/>
</clipPath>
</defs>
</svg>
