<svg width="20" height="21" viewBox="0 0 20 21" fill="none" xmlns="http://www.w3.org/2000/svg">
<g clip-path="url(#clip0_48_77)">
<g clip-path="url(#clip1_48_77)">
<path fill-rule="evenodd" clip-rule="evenodd" d="M10 19.1401C7.67936 19.1401 5.45376 18.2183 3.81282 16.5773C2.17187 14.9364 1.25 12.7108 1.25 10.3901C1.25 8.06949 2.17187 5.8439 3.81282 4.20295C5.45376 2.56201 7.67936 1.64014 10 1.64014C12.3206 1.64014 14.5462 2.56201 16.1872 4.20295C17.8281 5.8439 18.75 8.06949 18.75 10.3901C18.75 12.7108 17.8281 14.9364 16.1872 16.5773C14.5462 18.2183 12.3206 19.1401 10 19.1401ZM10 20.3901C12.6522 20.3901 15.1957 19.3366 17.0711 17.4612C18.9464 15.5858 20 13.0423 20 10.3901C20 7.73797 18.9464 5.19443 17.0711 3.31907C15.1957 1.44371 12.6522 0.390137 10 0.390137C7.34784 0.390137 4.8043 1.44371 2.92893 3.31907C1.05357 5.19443 0 7.73797 0 10.3901C0 13.0423 1.05357 15.5858 2.92893 17.4612C4.8043 19.3366 7.34784 20.3901 10 20.3901Z" fill="#042745"/>
<path d="M10 5.39014C10.1658 5.39014 10.3247 5.45598 10.4419 5.5732C10.5592 5.69041 10.625 5.84938 10.625 6.01514V9.76514H14.375C14.5408 9.76514 14.6997 9.83099 14.8169 9.94819C14.9342 10.0654 15 10.2244 15 10.3901C15 10.5559 14.9342 10.7149 14.8169 10.8321C14.6997 10.9493 14.5408 11.0151 14.375 11.0151H10.625V14.7651C10.625 14.9309 10.5592 15.0899 10.4419 15.2071C10.3247 15.3243 10.1658 15.3901 10 15.3901C9.83424 15.3901 9.67527 15.3243 9.55806 15.2071C9.44085 15.0899 9.375 14.9309 9.375 14.7651V11.0151H5.625C5.45924 11.0151 5.30027 10.9493 5.18306 10.8321C5.06585 10.7149 5 10.5559 5 10.3901C5 10.2244 5.06585 10.0654 5.18306 9.94819C5.30027 9.83099 5.45924 9.76514 5.625 9.76514H9.375V6.01514C9.375 5.84938 9.44085 5.69041 9.55806 5.5732C9.67527 5.45598 9.83424 5.39014 10 5.39014Z" fill="#042745"/>
</g>
</g>
<defs>
<clipPath id="clip0_48_77">
<rect width="20" height="20" fill="white" transform="translate(0 0.390137)"/>
</clipPath>
<clipPath id="clip1_48_77">
<rect width="20" height="20" fill="white" transform="translate(0 0.390137)"/>
</clipPath>
</defs>
</svg>
